<mxfile host="Electron" modified="2023-11-11T10:00:02.545Z" agent="Mozilla/5.0 (Windows NT 10.0; Win64; x64) AppleWebKit/537.36 (KHTML, like Gecko) draw.io/21.6.8 Chrome/114.0.5735.289 Electron/25.5.0 Safari/537.36" etag="AP-lTx4R4DrdyAJqxett" version="21.6.8" type="device">
  <diagram name="第 1 页" id="DgLAngT2QupaI9dEFPFv">
    <mxGraphModel dx="1490" dy="739" grid="1" gridSize="10" guides="1" tooltips="1" connect="1" arrows="1" fold="1" page="1" pageScale="1" pageWidth="1169" pageHeight="827" math="0" shadow="0">
      <root>
        <mxCell id="0" />
        <mxCell id="1" parent="0" />
        <mxCell id="9ADZMEtfifeqCtvCJXHL-1" value="1026" style="rounded=1;whiteSpace=wrap;html=1;fillColor=#dae8fc;strokeColor=#6c8ebf;fontColor=#000000;" parent="1" vertex="1">
          <mxGeometry x="60" y="160" width="40" height="40" as="geometry" />
        </mxCell>
        <mxCell id="9ADZMEtfifeqCtvCJXHL-3" value="1244" style="rounded=1;whiteSpace=wrap;html=1;fillColor=#dae8fc;strokeColor=#6c8ebf;fontColor=#000000;" parent="1" vertex="1">
          <mxGeometry x="140" y="160" width="40" height="40" as="geometry" />
        </mxCell>
        <mxCell id="9ADZMEtfifeqCtvCJXHL-4" value="307" style="rounded=1;whiteSpace=wrap;html=1;fillColor=#dae8fc;strokeColor=#6c8ebf;fontColor=#000000;" parent="1" vertex="1">
          <mxGeometry x="220" y="160" width="40" height="40" as="geometry" />
        </mxCell>
        <mxCell id="9ADZMEtfifeqCtvCJXHL-6" value="284" style="rounded=1;whiteSpace=wrap;html=1;fillColor=#dae8fc;strokeColor=#6c8ebf;fontColor=#000000;" parent="1" vertex="1">
          <mxGeometry x="380" y="160" width="40" height="40" as="geometry" />
        </mxCell>
        <mxCell id="9ADZMEtfifeqCtvCJXHL-7" value="1744" style="rounded=1;whiteSpace=wrap;html=1;fillColor=#dae8fc;strokeColor=#6c8ebf;fontColor=#000000;" parent="1" vertex="1">
          <mxGeometry x="299" y="160" width="40" height="40" as="geometry" />
        </mxCell>
        <mxCell id="9ADZMEtfifeqCtvCJXHL-8" value="466" style="rounded=1;whiteSpace=wrap;html=1;fillColor=#f8cecc;strokeColor=#b85450;fontColor=#000000;" parent="1" vertex="1">
          <mxGeometry x="600" y="160" width="40" height="40" as="geometry" />
        </mxCell>
        <mxCell id="9ADZMEtfifeqCtvCJXHL-9" value="428" style="rounded=1;whiteSpace=wrap;html=1;fillColor=#f8cecc;strokeColor=#b85450;fontColor=#000000;" parent="1" vertex="1">
          <mxGeometry x="680" y="160" width="40" height="40" as="geometry" />
        </mxCell>
        <mxCell id="9ADZMEtfifeqCtvCJXHL-10" value="11" style="rounded=1;whiteSpace=wrap;html=1;fillColor=#f8cecc;strokeColor=#b85450;fontColor=#000000;" parent="1" vertex="1">
          <mxGeometry x="760" y="160" width="40" height="40" as="geometry" />
        </mxCell>
        <mxCell id="9ADZMEtfifeqCtvCJXHL-11" value="340" style="rounded=1;whiteSpace=wrap;html=1;fillColor=#f8cecc;strokeColor=#b85450;fontColor=#000000;" parent="1" vertex="1">
          <mxGeometry x="920" y="160" width="40" height="40" as="geometry" />
        </mxCell>
        <mxCell id="9ADZMEtfifeqCtvCJXHL-12" value="475" style="rounded=1;whiteSpace=wrap;html=1;fillColor=#f8cecc;strokeColor=#b85450;fontColor=#000000;" parent="1" vertex="1">
          <mxGeometry x="840" y="160" width="40" height="40" as="geometry" />
        </mxCell>
        <mxCell id="9ADZMEtfifeqCtvCJXHL-14" value="651" style="rounded=1;whiteSpace=wrap;html=1;fillColor=#d5e8d4;strokeColor=#82b366;fontColor=#000000;" parent="1" vertex="1">
          <mxGeometry x="440" y="440" width="40" height="40" as="geometry" />
        </mxCell>
        <mxCell id="9ADZMEtfifeqCtvCJXHL-15" value="428" style="rounded=1;whiteSpace=wrap;html=1;fillColor=#d5e8d4;strokeColor=#82b366;fontColor=#000000;" parent="1" vertex="1">
          <mxGeometry x="520" y="440" width="40" height="40" as="geometry" />
        </mxCell>
        <mxCell id="9ADZMEtfifeqCtvCJXHL-16" value="287" style="rounded=1;whiteSpace=wrap;html=1;fillColor=#d5e8d4;strokeColor=#82b366;fontColor=#000000;" parent="1" vertex="1">
          <mxGeometry x="600" y="440" width="40" height="40" as="geometry" />
        </mxCell>
        <mxCell id="9ADZMEtfifeqCtvCJXHL-17" value="340" style="rounded=1;whiteSpace=wrap;html=1;fillColor=#d5e8d4;strokeColor=#82b366;fontColor=#000000;" parent="1" vertex="1">
          <mxGeometry x="760" y="440" width="40" height="40" as="geometry" />
        </mxCell>
        <mxCell id="9ADZMEtfifeqCtvCJXHL-18" value="475" style="rounded=1;whiteSpace=wrap;html=1;fillColor=#d5e8d4;strokeColor=#82b366;fontColor=#000000;" parent="1" vertex="1">
          <mxGeometry x="680" y="440" width="40" height="40" as="geometry" />
        </mxCell>
        <mxCell id="9ADZMEtfifeqCtvCJXHL-19" value="338" style="rounded=1;whiteSpace=wrap;html=1;fillColor=#d5e8d4;strokeColor=#82b366;fontColor=#000000;" parent="1" vertex="1">
          <mxGeometry x="880" y="320" width="40" height="40" as="geometry" />
        </mxCell>
        <mxCell id="9ADZMEtfifeqCtvCJXHL-25" value="" style="rounded=1;whiteSpace=wrap;html=1;fillColor=none;dashed=1;strokeWidth=2;strokeColor=#6c8ebf;fontColor=#000000;" parent="1" vertex="1">
          <mxGeometry x="50" y="150" width="380" height="60" as="geometry" />
        </mxCell>
        <mxCell id="9ADZMEtfifeqCtvCJXHL-27" value="" style="rounded=1;whiteSpace=wrap;html=1;fillColor=none;dashed=1;strokeWidth=2;strokeColor=#b85450;fontColor=#000000;" parent="1" vertex="1">
          <mxGeometry x="590" y="150" width="380" height="60" as="geometry" />
        </mxCell>
        <mxCell id="9ADZMEtfifeqCtvCJXHL-28" value="" style="rounded=1;whiteSpace=wrap;html=1;fillColor=#d5e8d4;dashed=1;strokeWidth=2;strokeColor=#82b366;fontColor=#000000;" parent="1" vertex="1">
          <mxGeometry x="30" y="310" width="780" height="60" as="geometry" />
        </mxCell>
        <mxCell id="9ADZMEtfifeqCtvCJXHL-29" value="" style="shape=flexArrow;endArrow=classic;html=1;rounded=0;fillColor=#f8cecc;gradientColor=#ea6b66;strokeColor=#b85450;fontColor=#FFFFFF;" parent="1" edge="1">
          <mxGeometry width="50" height="50" relative="1" as="geometry">
            <mxPoint x="480" y="179.49999999999997" as="sourcePoint" />
            <mxPoint x="550" y="179.49999999999997" as="targetPoint" />
          </mxGeometry>
        </mxCell>
        <mxCell id="9ADZMEtfifeqCtvCJXHL-31" value="辅助模型" style="edgeLabel;html=1;align=center;verticalAlign=middle;resizable=0;points=[];fontColor=#FFFFFF;" parent="9ADZMEtfifeqCtvCJXHL-29" vertex="1" connectable="0">
          <mxGeometry x="0.119" y="-1" relative="1" as="geometry">
            <mxPoint x="-19" y="9" as="offset" />
          </mxGeometry>
        </mxCell>
        <mxCell id="9ADZMEtfifeqCtvCJXHL-30" value="" style="shape=flexArrow;endArrow=classic;html=1;rounded=0;fillColor=#d5e8d4;gradientColor=#97d077;strokeColor=#82b366;fontColor=#FFFFFF;" parent="1" edge="1">
          <mxGeometry width="50" height="50" relative="1" as="geometry">
            <mxPoint x="320" y="459.5799999999999" as="sourcePoint" />
            <mxPoint x="390" y="459.5799999999999" as="targetPoint" />
          </mxGeometry>
        </mxCell>
        <mxCell id="9ADZMEtfifeqCtvCJXHL-32" value="原始模型" style="edgeLabel;html=1;align=center;verticalAlign=middle;resizable=0;points=[];fontColor=#FFFFFF;" parent="9ADZMEtfifeqCtvCJXHL-30" vertex="1" connectable="0">
          <mxGeometry x="0.0238" y="2" relative="1" as="geometry">
            <mxPoint x="-16" y="12" as="offset" />
          </mxGeometry>
        </mxCell>
        <mxCell id="Dhb1hUDmx3uwTJ4XG5KO-1" value="1026" style="rounded=1;whiteSpace=wrap;html=1;fillColor=#dae8fc;strokeColor=#6c8ebf;fontColor=#000000;" parent="1" vertex="1">
          <mxGeometry x="40" y="320" width="40" height="40" as="geometry" />
        </mxCell>
        <mxCell id="Dhb1hUDmx3uwTJ4XG5KO-2" value="1244" style="rounded=1;whiteSpace=wrap;html=1;fillColor=#dae8fc;strokeColor=#6c8ebf;fontColor=#000000;" parent="1" vertex="1">
          <mxGeometry x="120" y="320" width="40" height="40" as="geometry" />
        </mxCell>
        <mxCell id="Dhb1hUDmx3uwTJ4XG5KO-3" value="307" style="rounded=1;whiteSpace=wrap;html=1;fillColor=#dae8fc;strokeColor=#6c8ebf;fontColor=#000000;" parent="1" vertex="1">
          <mxGeometry x="200" y="320" width="40" height="40" as="geometry" />
        </mxCell>
        <mxCell id="Dhb1hUDmx3uwTJ4XG5KO-4" value="284" style="rounded=1;whiteSpace=wrap;html=1;fillColor=#dae8fc;strokeColor=#6c8ebf;fontColor=#000000;" parent="1" vertex="1">
          <mxGeometry x="360" y="320" width="40" height="40" as="geometry" />
        </mxCell>
        <mxCell id="Dhb1hUDmx3uwTJ4XG5KO-5" value="1744" style="rounded=1;whiteSpace=wrap;html=1;fillColor=#dae8fc;strokeColor=#6c8ebf;fontColor=#000000;" parent="1" vertex="1">
          <mxGeometry x="279" y="320" width="40" height="40" as="geometry" />
        </mxCell>
        <mxCell id="Dhb1hUDmx3uwTJ4XG5KO-19" style="edgeStyle=orthogonalEdgeStyle;rounded=0;orthogonalLoop=1;jettySize=auto;html=1;exitX=0.5;exitY=1;exitDx=0;exitDy=0;entryX=0.5;entryY=0;entryDx=0;entryDy=0;dashed=1;fontColor=#000000;" parent="1" source="Dhb1hUDmx3uwTJ4XG5KO-6" target="9ADZMEtfifeqCtvCJXHL-14" edge="1">
          <mxGeometry relative="1" as="geometry" />
        </mxCell>
        <mxCell id="Dhb1hUDmx3uwTJ4XG5KO-6" value="466" style="rounded=1;whiteSpace=wrap;html=1;fillColor=#f8cecc;strokeColor=#b85450;fontColor=#000000;" parent="1" vertex="1">
          <mxGeometry x="440" y="320" width="40" height="40" as="geometry" />
        </mxCell>
        <mxCell id="Dhb1hUDmx3uwTJ4XG5KO-20" style="edgeStyle=orthogonalEdgeStyle;rounded=0;orthogonalLoop=1;jettySize=auto;html=1;exitX=0.5;exitY=1;exitDx=0;exitDy=0;entryX=0.5;entryY=0;entryDx=0;entryDy=0;dashed=1;fontColor=#000000;" parent="1" source="Dhb1hUDmx3uwTJ4XG5KO-7" target="9ADZMEtfifeqCtvCJXHL-15" edge="1">
          <mxGeometry relative="1" as="geometry" />
        </mxCell>
        <mxCell id="Dhb1hUDmx3uwTJ4XG5KO-7" value="428" style="rounded=1;whiteSpace=wrap;html=1;fillColor=#f8cecc;strokeColor=#b85450;fontColor=#000000;" parent="1" vertex="1">
          <mxGeometry x="520" y="320" width="40" height="40" as="geometry" />
        </mxCell>
        <mxCell id="Dhb1hUDmx3uwTJ4XG5KO-21" style="edgeStyle=orthogonalEdgeStyle;rounded=0;orthogonalLoop=1;jettySize=auto;html=1;exitX=0.5;exitY=1;exitDx=0;exitDy=0;entryX=0.5;entryY=0;entryDx=0;entryDy=0;dashed=1;fontColor=#000000;" parent="1" source="Dhb1hUDmx3uwTJ4XG5KO-8" target="9ADZMEtfifeqCtvCJXHL-16" edge="1">
          <mxGeometry relative="1" as="geometry" />
        </mxCell>
        <mxCell id="Dhb1hUDmx3uwTJ4XG5KO-8" value="11" style="rounded=1;whiteSpace=wrap;html=1;fillColor=#f8cecc;strokeColor=#b85450;fontColor=#000000;" parent="1" vertex="1">
          <mxGeometry x="600" y="320" width="40" height="40" as="geometry" />
        </mxCell>
        <mxCell id="Dhb1hUDmx3uwTJ4XG5KO-23" style="edgeStyle=orthogonalEdgeStyle;rounded=0;orthogonalLoop=1;jettySize=auto;html=1;exitX=0.5;exitY=1;exitDx=0;exitDy=0;entryX=0.5;entryY=0;entryDx=0;entryDy=0;dashed=1;fontColor=#000000;" parent="1" source="Dhb1hUDmx3uwTJ4XG5KO-9" target="9ADZMEtfifeqCtvCJXHL-17" edge="1">
          <mxGeometry relative="1" as="geometry" />
        </mxCell>
        <mxCell id="Dhb1hUDmx3uwTJ4XG5KO-9" value="340" style="rounded=1;whiteSpace=wrap;html=1;fillColor=#f8cecc;strokeColor=#b85450;fontColor=#000000;" parent="1" vertex="1">
          <mxGeometry x="760" y="320" width="40" height="40" as="geometry" />
        </mxCell>
        <mxCell id="Dhb1hUDmx3uwTJ4XG5KO-22" style="edgeStyle=orthogonalEdgeStyle;rounded=0;orthogonalLoop=1;jettySize=auto;html=1;exitX=0.5;exitY=1;exitDx=0;exitDy=0;entryX=0.5;entryY=0;entryDx=0;entryDy=0;dashed=1;fontColor=#000000;" parent="1" source="Dhb1hUDmx3uwTJ4XG5KO-10" target="9ADZMEtfifeqCtvCJXHL-18" edge="1">
          <mxGeometry relative="1" as="geometry" />
        </mxCell>
        <mxCell id="Dhb1hUDmx3uwTJ4XG5KO-10" value="475" style="rounded=1;whiteSpace=wrap;html=1;fillColor=#f8cecc;strokeColor=#b85450;fontColor=#000000;" parent="1" vertex="1">
          <mxGeometry x="680" y="320" width="40" height="40" as="geometry" />
        </mxCell>
        <mxCell id="Dhb1hUDmx3uwTJ4XG5KO-17" value="" style="rounded=1;whiteSpace=wrap;html=1;fillColor=none;dashed=1;strokeWidth=2;strokeColor=#82b366;fontColor=#000000;" parent="1" vertex="1">
          <mxGeometry x="430" y="430" width="380" height="60" as="geometry" />
        </mxCell>
        <mxCell id="QXL7WL0u1E-QlMCpvDbK-12" value="" style="rounded=1;whiteSpace=wrap;html=1;fillColor=#d5e8d4;dashed=1;strokeWidth=2;strokeColor=#82b366;fontColor=#000000;" parent="1" vertex="1">
          <mxGeometry x="30" y="630" width="780" height="60" as="geometry" />
        </mxCell>
        <mxCell id="QXL7WL0u1E-QlMCpvDbK-26" style="edgeStyle=orthogonalEdgeStyle;rounded=0;orthogonalLoop=1;jettySize=auto;html=1;exitX=0.5;exitY=1;exitDx=0;exitDy=0;entryX=0.5;entryY=0;entryDx=0;entryDy=0;fontColor=#000000;" parent="1" source="QXL7WL0u1E-QlMCpvDbK-13" target="QXL7WL0u1E-QlMCpvDbK-24" edge="1">
          <mxGeometry relative="1" as="geometry" />
        </mxCell>
        <mxCell id="QXL7WL0u1E-QlMCpvDbK-13" value="1026" style="rounded=1;whiteSpace=wrap;html=1;fillColor=#dae8fc;strokeColor=#6c8ebf;fontColor=#000000;" parent="1" vertex="1">
          <mxGeometry x="40" y="640" width="40" height="40" as="geometry" />
        </mxCell>
        <mxCell id="QXL7WL0u1E-QlMCpvDbK-27" style="edgeStyle=orthogonalEdgeStyle;rounded=0;orthogonalLoop=1;jettySize=auto;html=1;exitX=0.5;exitY=1;exitDx=0;exitDy=0;entryX=0.5;entryY=0;entryDx=0;entryDy=0;fontColor=#000000;" parent="1" source="QXL7WL0u1E-QlMCpvDbK-14" target="QXL7WL0u1E-QlMCpvDbK-24" edge="1">
          <mxGeometry relative="1" as="geometry" />
        </mxCell>
        <mxCell id="QXL7WL0u1E-QlMCpvDbK-14" value="1244" style="rounded=1;whiteSpace=wrap;html=1;fillColor=#dae8fc;strokeColor=#6c8ebf;fontColor=#000000;" parent="1" vertex="1">
          <mxGeometry x="120" y="640" width="40" height="40" as="geometry" />
        </mxCell>
        <mxCell id="QXL7WL0u1E-QlMCpvDbK-28" style="edgeStyle=orthogonalEdgeStyle;rounded=0;orthogonalLoop=1;jettySize=auto;html=1;exitX=0.5;exitY=1;exitDx=0;exitDy=0;entryX=0.5;entryY=0;entryDx=0;entryDy=0;fontColor=#000000;" parent="1" source="QXL7WL0u1E-QlMCpvDbK-15" target="QXL7WL0u1E-QlMCpvDbK-24" edge="1">
          <mxGeometry relative="1" as="geometry" />
        </mxCell>
        <mxCell id="QXL7WL0u1E-QlMCpvDbK-15" value="307" style="rounded=1;whiteSpace=wrap;html=1;fillColor=#dae8fc;strokeColor=#6c8ebf;fontColor=#000000;" parent="1" vertex="1">
          <mxGeometry x="200" y="640" width="40" height="40" as="geometry" />
        </mxCell>
        <mxCell id="QXL7WL0u1E-QlMCpvDbK-30" style="edgeStyle=orthogonalEdgeStyle;rounded=0;orthogonalLoop=1;jettySize=auto;html=1;exitX=0.5;exitY=1;exitDx=0;exitDy=0;entryX=0.5;entryY=0;entryDx=0;entryDy=0;entryPerimeter=0;fontColor=#000000;" parent="1" source="QXL7WL0u1E-QlMCpvDbK-16" target="QXL7WL0u1E-QlMCpvDbK-24" edge="1">
          <mxGeometry relative="1" as="geometry">
            <mxPoint x="460" y="760" as="targetPoint" />
          </mxGeometry>
        </mxCell>
        <mxCell id="QXL7WL0u1E-QlMCpvDbK-16" value="284" style="rounded=1;whiteSpace=wrap;html=1;fillColor=#dae8fc;strokeColor=#6c8ebf;fontColor=#000000;" parent="1" vertex="1">
          <mxGeometry x="360" y="640" width="40" height="40" as="geometry" />
        </mxCell>
        <mxCell id="QXL7WL0u1E-QlMCpvDbK-29" style="edgeStyle=orthogonalEdgeStyle;rounded=0;orthogonalLoop=1;jettySize=auto;html=1;exitX=0.5;exitY=1;exitDx=0;exitDy=0;entryX=0.5;entryY=0;entryDx=0;entryDy=0;fontColor=#000000;" parent="1" source="QXL7WL0u1E-QlMCpvDbK-17" target="QXL7WL0u1E-QlMCpvDbK-24" edge="1">
          <mxGeometry relative="1" as="geometry" />
        </mxCell>
        <mxCell id="QXL7WL0u1E-QlMCpvDbK-17" value="1744" style="rounded=1;whiteSpace=wrap;html=1;fillColor=#dae8fc;strokeColor=#6c8ebf;fontColor=#000000;" parent="1" vertex="1">
          <mxGeometry x="279" y="640" width="40" height="40" as="geometry" />
        </mxCell>
        <mxCell id="QXL7WL0u1E-QlMCpvDbK-18" value="466" style="rounded=1;whiteSpace=wrap;html=1;fillColor=#f8cecc;strokeColor=#b85450;fontColor=#000000;" parent="1" vertex="1">
          <mxGeometry x="440" y="640" width="40" height="40" as="geometry" />
        </mxCell>
        <mxCell id="QXL7WL0u1E-QlMCpvDbK-19" value="428" style="rounded=1;whiteSpace=wrap;html=1;fillColor=#f8cecc;strokeColor=#b85450;fontColor=#000000;" parent="1" vertex="1">
          <mxGeometry x="520" y="640" width="40" height="40" as="geometry" />
        </mxCell>
        <mxCell id="QXL7WL0u1E-QlMCpvDbK-20" value="11" style="rounded=1;whiteSpace=wrap;html=1;fillColor=#f8cecc;strokeColor=#b85450;fontColor=#000000;" parent="1" vertex="1">
          <mxGeometry x="600" y="640" width="40" height="40" as="geometry" />
        </mxCell>
        <mxCell id="QXL7WL0u1E-QlMCpvDbK-21" value="340" style="rounded=1;whiteSpace=wrap;html=1;fillColor=#f8cecc;strokeColor=#b85450;fontColor=#000000;" parent="1" vertex="1">
          <mxGeometry x="760" y="640" width="40" height="40" as="geometry" />
        </mxCell>
        <mxCell id="QXL7WL0u1E-QlMCpvDbK-22" value="475" style="rounded=1;whiteSpace=wrap;html=1;fillColor=#f8cecc;strokeColor=#b85450;fontColor=#000000;" parent="1" vertex="1">
          <mxGeometry x="680" y="640" width="40" height="40" as="geometry" />
        </mxCell>
        <mxCell id="QXL7WL0u1E-QlMCpvDbK-24" value="651" style="rounded=1;whiteSpace=wrap;html=1;fillColor=#d5e8d4;strokeColor=#82b366;fontColor=#000000;" parent="1" vertex="1">
          <mxGeometry x="440" y="760" width="40" height="40" as="geometry" />
        </mxCell>
        <mxCell id="QXL7WL0u1E-QlMCpvDbK-31" value="" style="rounded=1;whiteSpace=wrap;html=1;fillColor=#d5e8d4;dashed=1;strokeWidth=2;strokeColor=#82b366;fontColor=#000000;" parent="1" vertex="1">
          <mxGeometry x="30" y="950" width="780" height="60" as="geometry" />
        </mxCell>
        <mxCell id="QXL7WL0u1E-QlMCpvDbK-32" style="edgeStyle=orthogonalEdgeStyle;rounded=0;orthogonalLoop=1;jettySize=auto;html=1;exitX=0.5;exitY=1;exitDx=0;exitDy=0;entryX=0.5;entryY=0;entryDx=0;entryDy=0;fontColor=#000000;" parent="1" source="QXL7WL0u1E-QlMCpvDbK-33" target="QXL7WL0u1E-QlMCpvDbK-47" edge="1">
          <mxGeometry relative="1" as="geometry" />
        </mxCell>
        <mxCell id="QXL7WL0u1E-QlMCpvDbK-33" value="1026" style="rounded=1;whiteSpace=wrap;html=1;fillColor=#dae8fc;strokeColor=#6c8ebf;fontColor=#000000;" parent="1" vertex="1">
          <mxGeometry x="40" y="960" width="40" height="40" as="geometry" />
        </mxCell>
        <mxCell id="QXL7WL0u1E-QlMCpvDbK-34" style="edgeStyle=orthogonalEdgeStyle;rounded=0;orthogonalLoop=1;jettySize=auto;html=1;exitX=0.5;exitY=1;exitDx=0;exitDy=0;entryX=0.5;entryY=0;entryDx=0;entryDy=0;fontColor=#000000;" parent="1" source="QXL7WL0u1E-QlMCpvDbK-35" target="QXL7WL0u1E-QlMCpvDbK-47" edge="1">
          <mxGeometry relative="1" as="geometry" />
        </mxCell>
        <mxCell id="QXL7WL0u1E-QlMCpvDbK-35" value="1244" style="rounded=1;whiteSpace=wrap;html=1;fillColor=#dae8fc;strokeColor=#6c8ebf;fontColor=#000000;" parent="1" vertex="1">
          <mxGeometry x="120" y="960" width="40" height="40" as="geometry" />
        </mxCell>
        <mxCell id="QXL7WL0u1E-QlMCpvDbK-36" style="edgeStyle=orthogonalEdgeStyle;rounded=0;orthogonalLoop=1;jettySize=auto;html=1;exitX=0.5;exitY=1;exitDx=0;exitDy=0;entryX=0.5;entryY=0;entryDx=0;entryDy=0;fontColor=#000000;" parent="1" source="QXL7WL0u1E-QlMCpvDbK-37" target="QXL7WL0u1E-QlMCpvDbK-47" edge="1">
          <mxGeometry relative="1" as="geometry" />
        </mxCell>
        <mxCell id="QXL7WL0u1E-QlMCpvDbK-37" value="307" style="rounded=1;whiteSpace=wrap;html=1;fillColor=#dae8fc;strokeColor=#6c8ebf;fontColor=#000000;" parent="1" vertex="1">
          <mxGeometry x="200" y="960" width="40" height="40" as="geometry" />
        </mxCell>
        <mxCell id="QXL7WL0u1E-QlMCpvDbK-38" style="edgeStyle=orthogonalEdgeStyle;rounded=0;orthogonalLoop=1;jettySize=auto;html=1;exitX=0.5;exitY=1;exitDx=0;exitDy=0;entryX=0.5;entryY=0;entryDx=0;entryDy=0;fontColor=#000000;" parent="1" source="QXL7WL0u1E-QlMCpvDbK-39" target="QXL7WL0u1E-QlMCpvDbK-47" edge="1">
          <mxGeometry relative="1" as="geometry">
            <mxPoint x="470" y="1090" as="targetPoint" />
          </mxGeometry>
        </mxCell>
        <mxCell id="QXL7WL0u1E-QlMCpvDbK-39" value="284" style="rounded=1;whiteSpace=wrap;html=1;fillColor=#dae8fc;strokeColor=#6c8ebf;fontColor=#000000;" parent="1" vertex="1">
          <mxGeometry x="360" y="960" width="40" height="40" as="geometry" />
        </mxCell>
        <mxCell id="QXL7WL0u1E-QlMCpvDbK-40" style="edgeStyle=orthogonalEdgeStyle;rounded=0;orthogonalLoop=1;jettySize=auto;html=1;exitX=0.5;exitY=1;exitDx=0;exitDy=0;entryX=0.5;entryY=0;entryDx=0;entryDy=0;fontColor=#000000;" parent="1" source="QXL7WL0u1E-QlMCpvDbK-41" target="QXL7WL0u1E-QlMCpvDbK-47" edge="1">
          <mxGeometry relative="1" as="geometry" />
        </mxCell>
        <mxCell id="QXL7WL0u1E-QlMCpvDbK-41" value="1744" style="rounded=1;whiteSpace=wrap;html=1;fillColor=#dae8fc;strokeColor=#6c8ebf;fontColor=#000000;" parent="1" vertex="1">
          <mxGeometry x="279" y="960" width="40" height="40" as="geometry" />
        </mxCell>
        <mxCell id="QXL7WL0u1E-QlMCpvDbK-65" style="edgeStyle=orthogonalEdgeStyle;rounded=0;orthogonalLoop=1;jettySize=auto;html=1;exitX=0.5;exitY=1;exitDx=0;exitDy=0;entryX=0.5;entryY=0;entryDx=0;entryDy=0;fontColor=#000000;" parent="1" source="QXL7WL0u1E-QlMCpvDbK-42" target="QXL7WL0u1E-QlMCpvDbK-47" edge="1">
          <mxGeometry relative="1" as="geometry" />
        </mxCell>
        <mxCell id="QXL7WL0u1E-QlMCpvDbK-42" value="466" style="rounded=1;whiteSpace=wrap;html=1;fillColor=#f8cecc;strokeColor=#b85450;fontColor=#000000;" parent="1" vertex="1">
          <mxGeometry x="440" y="960" width="40" height="40" as="geometry" />
        </mxCell>
        <mxCell id="QXL7WL0u1E-QlMCpvDbK-43" value="428" style="rounded=1;whiteSpace=wrap;html=1;fillColor=#f8cecc;strokeColor=#b85450;fontColor=#000000;" parent="1" vertex="1">
          <mxGeometry x="520" y="960" width="40" height="40" as="geometry" />
        </mxCell>
        <mxCell id="QXL7WL0u1E-QlMCpvDbK-44" value="11" style="rounded=1;whiteSpace=wrap;html=1;fillColor=#f8cecc;strokeColor=#b85450;fontColor=#000000;" parent="1" vertex="1">
          <mxGeometry x="600" y="960" width="40" height="40" as="geometry" />
        </mxCell>
        <mxCell id="QXL7WL0u1E-QlMCpvDbK-45" value="340" style="rounded=1;whiteSpace=wrap;html=1;fillColor=#f8cecc;strokeColor=#b85450;fontColor=#000000;" parent="1" vertex="1">
          <mxGeometry x="760" y="960" width="40" height="40" as="geometry" />
        </mxCell>
        <mxCell id="QXL7WL0u1E-QlMCpvDbK-46" value="475" style="rounded=1;whiteSpace=wrap;html=1;fillColor=#f8cecc;strokeColor=#b85450;fontColor=#000000;" parent="1" vertex="1">
          <mxGeometry x="680" y="960" width="40" height="40" as="geometry" />
        </mxCell>
        <mxCell id="QXL7WL0u1E-QlMCpvDbK-47" value="428" style="rounded=1;whiteSpace=wrap;html=1;fillColor=#d5e8d4;strokeColor=#82b366;fontColor=#000000;" parent="1" vertex="1">
          <mxGeometry x="520" y="1080" width="40" height="40" as="geometry" />
        </mxCell>
        <mxCell id="QXL7WL0u1E-QlMCpvDbK-48" value="" style="rounded=1;whiteSpace=wrap;html=1;fillColor=#d5e8d4;dashed=1;strokeWidth=2;strokeColor=#82b366;fontColor=#000000;" parent="1" vertex="1">
          <mxGeometry x="30" y="1190" width="780" height="60" as="geometry" />
        </mxCell>
        <mxCell id="QXL7WL0u1E-QlMCpvDbK-49" style="edgeStyle=orthogonalEdgeStyle;rounded=0;orthogonalLoop=1;jettySize=auto;html=1;exitX=0.5;exitY=1;exitDx=0;exitDy=0;entryX=0.5;entryY=0;entryDx=0;entryDy=0;fontColor=#000000;" parent="1" source="QXL7WL0u1E-QlMCpvDbK-50" target="QXL7WL0u1E-QlMCpvDbK-64" edge="1">
          <mxGeometry relative="1" as="geometry" />
        </mxCell>
        <mxCell id="QXL7WL0u1E-QlMCpvDbK-50" value="1026" style="rounded=1;whiteSpace=wrap;html=1;fillColor=#dae8fc;strokeColor=#6c8ebf;fontColor=#000000;" parent="1" vertex="1">
          <mxGeometry x="40" y="1200" width="40" height="40" as="geometry" />
        </mxCell>
        <mxCell id="QXL7WL0u1E-QlMCpvDbK-51" style="edgeStyle=orthogonalEdgeStyle;rounded=0;orthogonalLoop=1;jettySize=auto;html=1;exitX=0.5;exitY=1;exitDx=0;exitDy=0;entryX=0.5;entryY=0;entryDx=0;entryDy=0;fontColor=#000000;" parent="1" source="QXL7WL0u1E-QlMCpvDbK-52" target="QXL7WL0u1E-QlMCpvDbK-64" edge="1">
          <mxGeometry relative="1" as="geometry" />
        </mxCell>
        <mxCell id="QXL7WL0u1E-QlMCpvDbK-52" value="1244" style="rounded=1;whiteSpace=wrap;html=1;fillColor=#dae8fc;strokeColor=#6c8ebf;fontColor=#000000;" parent="1" vertex="1">
          <mxGeometry x="120" y="1200" width="40" height="40" as="geometry" />
        </mxCell>
        <mxCell id="QXL7WL0u1E-QlMCpvDbK-53" style="edgeStyle=orthogonalEdgeStyle;rounded=0;orthogonalLoop=1;jettySize=auto;html=1;exitX=0.5;exitY=1;exitDx=0;exitDy=0;entryX=0.5;entryY=0;entryDx=0;entryDy=0;fontColor=#000000;" parent="1" source="QXL7WL0u1E-QlMCpvDbK-54" target="QXL7WL0u1E-QlMCpvDbK-64" edge="1">
          <mxGeometry relative="1" as="geometry" />
        </mxCell>
        <mxCell id="QXL7WL0u1E-QlMCpvDbK-54" value="307" style="rounded=1;whiteSpace=wrap;html=1;fillColor=#dae8fc;strokeColor=#6c8ebf;fontColor=#000000;" parent="1" vertex="1">
          <mxGeometry x="200" y="1200" width="40" height="40" as="geometry" />
        </mxCell>
        <mxCell id="QXL7WL0u1E-QlMCpvDbK-55" style="edgeStyle=orthogonalEdgeStyle;rounded=0;orthogonalLoop=1;jettySize=auto;html=1;exitX=0.5;exitY=1;exitDx=0;exitDy=0;entryX=0.5;entryY=0;entryDx=0;entryDy=0;fontColor=#000000;" parent="1" source="QXL7WL0u1E-QlMCpvDbK-56" target="QXL7WL0u1E-QlMCpvDbK-64" edge="1">
          <mxGeometry relative="1" as="geometry">
            <mxPoint x="470" y="1381" as="targetPoint" />
          </mxGeometry>
        </mxCell>
        <mxCell id="QXL7WL0u1E-QlMCpvDbK-56" value="284" style="rounded=1;whiteSpace=wrap;html=1;fillColor=#dae8fc;strokeColor=#6c8ebf;fontColor=#000000;" parent="1" vertex="1">
          <mxGeometry x="360" y="1200" width="40" height="40" as="geometry" />
        </mxCell>
        <mxCell id="QXL7WL0u1E-QlMCpvDbK-57" style="edgeStyle=orthogonalEdgeStyle;rounded=0;orthogonalLoop=1;jettySize=auto;html=1;exitX=0.5;exitY=1;exitDx=0;exitDy=0;entryX=0.5;entryY=0;entryDx=0;entryDy=0;fontColor=#000000;" parent="1" source="QXL7WL0u1E-QlMCpvDbK-58" target="QXL7WL0u1E-QlMCpvDbK-64" edge="1">
          <mxGeometry relative="1" as="geometry" />
        </mxCell>
        <mxCell id="QXL7WL0u1E-QlMCpvDbK-58" value="1744" style="rounded=1;whiteSpace=wrap;html=1;fillColor=#dae8fc;strokeColor=#6c8ebf;fontColor=#000000;" parent="1" vertex="1">
          <mxGeometry x="279" y="1200" width="40" height="40" as="geometry" />
        </mxCell>
        <mxCell id="QXL7WL0u1E-QlMCpvDbK-66" style="edgeStyle=orthogonalEdgeStyle;rounded=0;orthogonalLoop=1;jettySize=auto;html=1;exitX=0.5;exitY=1;exitDx=0;exitDy=0;entryX=0.5;entryY=0;entryDx=0;entryDy=0;fontColor=#000000;" parent="1" source="QXL7WL0u1E-QlMCpvDbK-59" target="QXL7WL0u1E-QlMCpvDbK-64" edge="1">
          <mxGeometry relative="1" as="geometry" />
        </mxCell>
        <mxCell id="QXL7WL0u1E-QlMCpvDbK-59" value="466" style="rounded=1;whiteSpace=wrap;html=1;fillColor=#f8cecc;strokeColor=#b85450;fontColor=#000000;" parent="1" vertex="1">
          <mxGeometry x="440" y="1200" width="40" height="40" as="geometry" />
        </mxCell>
        <mxCell id="QXL7WL0u1E-QlMCpvDbK-67" style="edgeStyle=orthogonalEdgeStyle;rounded=0;orthogonalLoop=1;jettySize=auto;html=1;exitX=0.5;exitY=1;exitDx=0;exitDy=0;entryX=0.5;entryY=0;entryDx=0;entryDy=0;fontColor=#000000;" parent="1" source="QXL7WL0u1E-QlMCpvDbK-60" target="QXL7WL0u1E-QlMCpvDbK-64" edge="1">
          <mxGeometry relative="1" as="geometry" />
        </mxCell>
        <mxCell id="QXL7WL0u1E-QlMCpvDbK-60" value="428" style="rounded=1;whiteSpace=wrap;html=1;fillColor=#f8cecc;strokeColor=#b85450;fontColor=#000000;" parent="1" vertex="1">
          <mxGeometry x="520" y="1200" width="40" height="40" as="geometry" />
        </mxCell>
        <mxCell id="QXL7WL0u1E-QlMCpvDbK-61" value="11" style="rounded=1;whiteSpace=wrap;html=1;fillColor=#f8cecc;strokeColor=#b85450;fontColor=#000000;" parent="1" vertex="1">
          <mxGeometry x="600" y="1200" width="40" height="40" as="geometry" />
        </mxCell>
        <mxCell id="QXL7WL0u1E-QlMCpvDbK-62" value="340" style="rounded=1;whiteSpace=wrap;html=1;fillColor=#f8cecc;strokeColor=#b85450;fontColor=#000000;" parent="1" vertex="1">
          <mxGeometry x="760" y="1200" width="40" height="40" as="geometry" />
        </mxCell>
        <mxCell id="QXL7WL0u1E-QlMCpvDbK-63" value="475" style="rounded=1;whiteSpace=wrap;html=1;fillColor=#f8cecc;strokeColor=#b85450;fontColor=#000000;" parent="1" vertex="1">
          <mxGeometry x="680" y="1200" width="40" height="40" as="geometry" />
        </mxCell>
        <mxCell id="QXL7WL0u1E-QlMCpvDbK-64" value="287" style="rounded=1;whiteSpace=wrap;html=1;fillColor=#d5e8d4;strokeColor=#82b366;fontColor=#000000;" parent="1" vertex="1">
          <mxGeometry x="600" y="1320" width="40" height="40" as="geometry" />
        </mxCell>
        <mxCell id="QXL7WL0u1E-QlMCpvDbK-68" value="" style="rounded=1;whiteSpace=wrap;html=1;fillColor=#d5e8d4;dashed=1;strokeWidth=2;strokeColor=#82b366;fontColor=#000000;" parent="1" vertex="1">
          <mxGeometry x="30" y="1470" width="780" height="60" as="geometry" />
        </mxCell>
        <mxCell id="QXL7WL0u1E-QlMCpvDbK-69" style="edgeStyle=orthogonalEdgeStyle;rounded=0;orthogonalLoop=1;jettySize=auto;html=1;exitX=0.5;exitY=1;exitDx=0;exitDy=0;entryX=0.5;entryY=0;entryDx=0;entryDy=0;fontColor=#000000;" parent="1" source="QXL7WL0u1E-QlMCpvDbK-70" target="QXL7WL0u1E-QlMCpvDbK-86" edge="1">
          <mxGeometry relative="1" as="geometry" />
        </mxCell>
        <mxCell id="QXL7WL0u1E-QlMCpvDbK-70" value="1026" style="rounded=1;whiteSpace=wrap;html=1;fillColor=#dae8fc;strokeColor=#6c8ebf;fontColor=#000000;" parent="1" vertex="1">
          <mxGeometry x="40" y="1480" width="40" height="40" as="geometry" />
        </mxCell>
        <mxCell id="QXL7WL0u1E-QlMCpvDbK-71" style="edgeStyle=orthogonalEdgeStyle;rounded=0;orthogonalLoop=1;jettySize=auto;html=1;exitX=0.5;exitY=1;exitDx=0;exitDy=0;entryX=0.5;entryY=0;entryDx=0;entryDy=0;fontColor=#000000;" parent="1" source="QXL7WL0u1E-QlMCpvDbK-72" target="QXL7WL0u1E-QlMCpvDbK-86" edge="1">
          <mxGeometry relative="1" as="geometry" />
        </mxCell>
        <mxCell id="QXL7WL0u1E-QlMCpvDbK-72" value="1244" style="rounded=1;whiteSpace=wrap;html=1;fillColor=#dae8fc;strokeColor=#6c8ebf;fontColor=#000000;" parent="1" vertex="1">
          <mxGeometry x="120" y="1480" width="40" height="40" as="geometry" />
        </mxCell>
        <mxCell id="QXL7WL0u1E-QlMCpvDbK-73" style="edgeStyle=orthogonalEdgeStyle;rounded=0;orthogonalLoop=1;jettySize=auto;html=1;exitX=0.5;exitY=1;exitDx=0;exitDy=0;entryX=0.5;entryY=0;entryDx=0;entryDy=0;fontColor=#000000;" parent="1" source="QXL7WL0u1E-QlMCpvDbK-74" target="QXL7WL0u1E-QlMCpvDbK-86" edge="1">
          <mxGeometry relative="1" as="geometry" />
        </mxCell>
        <mxCell id="QXL7WL0u1E-QlMCpvDbK-74" value="307" style="rounded=1;whiteSpace=wrap;html=1;fillColor=#dae8fc;strokeColor=#6c8ebf;fontColor=#000000;" parent="1" vertex="1">
          <mxGeometry x="200" y="1480" width="40" height="40" as="geometry" />
        </mxCell>
        <mxCell id="QXL7WL0u1E-QlMCpvDbK-75" style="edgeStyle=orthogonalEdgeStyle;rounded=0;orthogonalLoop=1;jettySize=auto;html=1;exitX=0.5;exitY=1;exitDx=0;exitDy=0;entryX=0.5;entryY=0;entryDx=0;entryDy=0;fontColor=#000000;" parent="1" source="QXL7WL0u1E-QlMCpvDbK-76" target="QXL7WL0u1E-QlMCpvDbK-86" edge="1">
          <mxGeometry relative="1" as="geometry">
            <mxPoint x="470" y="1661" as="targetPoint" />
          </mxGeometry>
        </mxCell>
        <mxCell id="QXL7WL0u1E-QlMCpvDbK-76" value="284" style="rounded=1;whiteSpace=wrap;html=1;fillColor=#dae8fc;strokeColor=#6c8ebf;fontColor=#000000;" parent="1" vertex="1">
          <mxGeometry x="360" y="1480" width="40" height="40" as="geometry" />
        </mxCell>
        <mxCell id="QXL7WL0u1E-QlMCpvDbK-77" style="edgeStyle=orthogonalEdgeStyle;rounded=0;orthogonalLoop=1;jettySize=auto;html=1;exitX=0.5;exitY=1;exitDx=0;exitDy=0;entryX=0.5;entryY=0;entryDx=0;entryDy=0;fontColor=#000000;" parent="1" source="QXL7WL0u1E-QlMCpvDbK-78" target="QXL7WL0u1E-QlMCpvDbK-86" edge="1">
          <mxGeometry relative="1" as="geometry" />
        </mxCell>
        <mxCell id="QXL7WL0u1E-QlMCpvDbK-78" value="1744" style="rounded=1;whiteSpace=wrap;html=1;fillColor=#dae8fc;strokeColor=#6c8ebf;fontColor=#000000;" parent="1" vertex="1">
          <mxGeometry x="279" y="1480" width="40" height="40" as="geometry" />
        </mxCell>
        <mxCell id="QXL7WL0u1E-QlMCpvDbK-79" style="edgeStyle=orthogonalEdgeStyle;rounded=0;orthogonalLoop=1;jettySize=auto;html=1;exitX=0.5;exitY=1;exitDx=0;exitDy=0;entryX=0.5;entryY=0;entryDx=0;entryDy=0;fontColor=#000000;" parent="1" source="QXL7WL0u1E-QlMCpvDbK-80" target="QXL7WL0u1E-QlMCpvDbK-86" edge="1">
          <mxGeometry relative="1" as="geometry" />
        </mxCell>
        <mxCell id="QXL7WL0u1E-QlMCpvDbK-80" value="466" style="rounded=1;whiteSpace=wrap;html=1;fillColor=#f8cecc;strokeColor=#b85450;fontColor=#000000;" parent="1" vertex="1">
          <mxGeometry x="440" y="1480" width="40" height="40" as="geometry" />
        </mxCell>
        <mxCell id="QXL7WL0u1E-QlMCpvDbK-81" style="edgeStyle=orthogonalEdgeStyle;rounded=0;orthogonalLoop=1;jettySize=auto;html=1;exitX=0.5;exitY=1;exitDx=0;exitDy=0;entryX=0.5;entryY=0;entryDx=0;entryDy=0;fontColor=#000000;" parent="1" source="QXL7WL0u1E-QlMCpvDbK-82" target="QXL7WL0u1E-QlMCpvDbK-86" edge="1">
          <mxGeometry relative="1" as="geometry" />
        </mxCell>
        <mxCell id="QXL7WL0u1E-QlMCpvDbK-82" value="428" style="rounded=1;whiteSpace=wrap;html=1;fillColor=#f8cecc;strokeColor=#b85450;fontColor=#000000;" parent="1" vertex="1">
          <mxGeometry x="520" y="1480" width="40" height="40" as="geometry" />
        </mxCell>
        <mxCell id="QXL7WL0u1E-QlMCpvDbK-87" style="edgeStyle=orthogonalEdgeStyle;rounded=0;orthogonalLoop=1;jettySize=auto;html=1;exitX=0.5;exitY=1;exitDx=0;exitDy=0;entryX=0.5;entryY=0;entryDx=0;entryDy=0;fontColor=#000000;" parent="1" source="QXL7WL0u1E-QlMCpvDbK-83" target="QXL7WL0u1E-QlMCpvDbK-86" edge="1">
          <mxGeometry relative="1" as="geometry" />
        </mxCell>
        <mxCell id="QXL7WL0u1E-QlMCpvDbK-83" value="11" style="rounded=1;whiteSpace=wrap;html=1;fillColor=#f8cecc;strokeColor=#b85450;fontColor=#000000;" parent="1" vertex="1">
          <mxGeometry x="600" y="1480" width="40" height="40" as="geometry" />
        </mxCell>
        <mxCell id="QXL7WL0u1E-QlMCpvDbK-84" value="340" style="rounded=1;whiteSpace=wrap;html=1;fillColor=#f8cecc;strokeColor=#b85450;fontColor=#000000;" parent="1" vertex="1">
          <mxGeometry x="760" y="1480" width="40" height="40" as="geometry" />
        </mxCell>
        <mxCell id="QXL7WL0u1E-QlMCpvDbK-85" value="475" style="rounded=1;whiteSpace=wrap;html=1;fillColor=#f8cecc;strokeColor=#b85450;fontColor=#000000;" parent="1" vertex="1">
          <mxGeometry x="680" y="1480" width="40" height="40" as="geometry" />
        </mxCell>
        <mxCell id="QXL7WL0u1E-QlMCpvDbK-86" value="475" style="rounded=1;whiteSpace=wrap;html=1;fillColor=#d5e8d4;strokeColor=#82b366;fontColor=#000000;" parent="1" vertex="1">
          <mxGeometry x="680" y="1600" width="40" height="40" as="geometry" />
        </mxCell>
        <mxCell id="QXL7WL0u1E-QlMCpvDbK-88" value="" style="rounded=1;whiteSpace=wrap;html=1;fillColor=#d5e8d4;dashed=1;strokeWidth=2;strokeColor=#82b366;fontColor=#000000;" parent="1" vertex="1">
          <mxGeometry x="30" y="1760" width="780" height="60" as="geometry" />
        </mxCell>
        <mxCell id="QXL7WL0u1E-QlMCpvDbK-89" style="edgeStyle=orthogonalEdgeStyle;rounded=0;orthogonalLoop=1;jettySize=auto;html=1;exitX=0.5;exitY=1;exitDx=0;exitDy=0;entryX=0.5;entryY=0;entryDx=0;entryDy=0;fontColor=#000000;" parent="1" source="QXL7WL0u1E-QlMCpvDbK-90" target="QXL7WL0u1E-QlMCpvDbK-107" edge="1">
          <mxGeometry relative="1" as="geometry" />
        </mxCell>
        <mxCell id="QXL7WL0u1E-QlMCpvDbK-90" value="1026" style="rounded=1;whiteSpace=wrap;html=1;fillColor=#dae8fc;strokeColor=#6c8ebf;fontColor=#000000;" parent="1" vertex="1">
          <mxGeometry x="40" y="1770" width="40" height="40" as="geometry" />
        </mxCell>
        <mxCell id="QXL7WL0u1E-QlMCpvDbK-91" style="edgeStyle=orthogonalEdgeStyle;rounded=0;orthogonalLoop=1;jettySize=auto;html=1;exitX=0.5;exitY=1;exitDx=0;exitDy=0;entryX=0.5;entryY=0;entryDx=0;entryDy=0;fontColor=#000000;" parent="1" source="QXL7WL0u1E-QlMCpvDbK-92" target="QXL7WL0u1E-QlMCpvDbK-107" edge="1">
          <mxGeometry relative="1" as="geometry" />
        </mxCell>
        <mxCell id="QXL7WL0u1E-QlMCpvDbK-92" value="1244" style="rounded=1;whiteSpace=wrap;html=1;fillColor=#dae8fc;strokeColor=#6c8ebf;fontColor=#000000;" parent="1" vertex="1">
          <mxGeometry x="120" y="1770" width="40" height="40" as="geometry" />
        </mxCell>
        <mxCell id="QXL7WL0u1E-QlMCpvDbK-93" style="edgeStyle=orthogonalEdgeStyle;rounded=0;orthogonalLoop=1;jettySize=auto;html=1;exitX=0.5;exitY=1;exitDx=0;exitDy=0;entryX=0.5;entryY=0;entryDx=0;entryDy=0;fontColor=#000000;" parent="1" source="QXL7WL0u1E-QlMCpvDbK-94" target="QXL7WL0u1E-QlMCpvDbK-107" edge="1">
          <mxGeometry relative="1" as="geometry" />
        </mxCell>
        <mxCell id="QXL7WL0u1E-QlMCpvDbK-94" value="307" style="rounded=1;whiteSpace=wrap;html=1;fillColor=#dae8fc;strokeColor=#6c8ebf;fontColor=#000000;" parent="1" vertex="1">
          <mxGeometry x="200" y="1770" width="40" height="40" as="geometry" />
        </mxCell>
        <mxCell id="QXL7WL0u1E-QlMCpvDbK-95" style="edgeStyle=orthogonalEdgeStyle;rounded=0;orthogonalLoop=1;jettySize=auto;html=1;exitX=0.5;exitY=1;exitDx=0;exitDy=0;entryX=0.5;entryY=0;entryDx=0;entryDy=0;fontColor=#000000;" parent="1" source="QXL7WL0u1E-QlMCpvDbK-96" target="QXL7WL0u1E-QlMCpvDbK-107" edge="1">
          <mxGeometry relative="1" as="geometry">
            <mxPoint x="470" y="1951" as="targetPoint" />
          </mxGeometry>
        </mxCell>
        <mxCell id="QXL7WL0u1E-QlMCpvDbK-96" value="284" style="rounded=1;whiteSpace=wrap;html=1;fillColor=#dae8fc;strokeColor=#6c8ebf;fontColor=#000000;" parent="1" vertex="1">
          <mxGeometry x="360" y="1770" width="40" height="40" as="geometry" />
        </mxCell>
        <mxCell id="QXL7WL0u1E-QlMCpvDbK-97" style="edgeStyle=orthogonalEdgeStyle;rounded=0;orthogonalLoop=1;jettySize=auto;html=1;exitX=0.5;exitY=1;exitDx=0;exitDy=0;entryX=0.5;entryY=0;entryDx=0;entryDy=0;fontColor=#000000;" parent="1" source="QXL7WL0u1E-QlMCpvDbK-98" target="QXL7WL0u1E-QlMCpvDbK-107" edge="1">
          <mxGeometry relative="1" as="geometry" />
        </mxCell>
        <mxCell id="QXL7WL0u1E-QlMCpvDbK-98" value="1744" style="rounded=1;whiteSpace=wrap;html=1;fillColor=#dae8fc;strokeColor=#6c8ebf;fontColor=#000000;" parent="1" vertex="1">
          <mxGeometry x="279" y="1770" width="40" height="40" as="geometry" />
        </mxCell>
        <mxCell id="QXL7WL0u1E-QlMCpvDbK-99" style="edgeStyle=orthogonalEdgeStyle;rounded=0;orthogonalLoop=1;jettySize=auto;html=1;exitX=0.5;exitY=1;exitDx=0;exitDy=0;entryX=0.5;entryY=0;entryDx=0;entryDy=0;fontColor=#000000;" parent="1" source="QXL7WL0u1E-QlMCpvDbK-100" target="QXL7WL0u1E-QlMCpvDbK-107" edge="1">
          <mxGeometry relative="1" as="geometry" />
        </mxCell>
        <mxCell id="QXL7WL0u1E-QlMCpvDbK-100" value="466" style="rounded=1;whiteSpace=wrap;html=1;fillColor=#f8cecc;strokeColor=#b85450;fontColor=#000000;" parent="1" vertex="1">
          <mxGeometry x="440" y="1770" width="40" height="40" as="geometry" />
        </mxCell>
        <mxCell id="QXL7WL0u1E-QlMCpvDbK-101" style="edgeStyle=orthogonalEdgeStyle;rounded=0;orthogonalLoop=1;jettySize=auto;html=1;exitX=0.5;exitY=1;exitDx=0;exitDy=0;entryX=0.5;entryY=0;entryDx=0;entryDy=0;fontColor=#000000;" parent="1" source="QXL7WL0u1E-QlMCpvDbK-102" target="QXL7WL0u1E-QlMCpvDbK-107" edge="1">
          <mxGeometry relative="1" as="geometry" />
        </mxCell>
        <mxCell id="QXL7WL0u1E-QlMCpvDbK-102" value="428" style="rounded=1;whiteSpace=wrap;html=1;fillColor=#f8cecc;strokeColor=#b85450;fontColor=#000000;" parent="1" vertex="1">
          <mxGeometry x="520" y="1770" width="40" height="40" as="geometry" />
        </mxCell>
        <mxCell id="QXL7WL0u1E-QlMCpvDbK-103" style="edgeStyle=orthogonalEdgeStyle;rounded=0;orthogonalLoop=1;jettySize=auto;html=1;exitX=0.5;exitY=1;exitDx=0;exitDy=0;entryX=0.5;entryY=0;entryDx=0;entryDy=0;fontColor=#000000;" parent="1" source="QXL7WL0u1E-QlMCpvDbK-104" target="QXL7WL0u1E-QlMCpvDbK-107" edge="1">
          <mxGeometry relative="1" as="geometry" />
        </mxCell>
        <mxCell id="QXL7WL0u1E-QlMCpvDbK-104" value="11" style="rounded=1;whiteSpace=wrap;html=1;fillColor=#f8cecc;strokeColor=#b85450;fontColor=#000000;" parent="1" vertex="1">
          <mxGeometry x="600" y="1770" width="40" height="40" as="geometry" />
        </mxCell>
        <mxCell id="QXL7WL0u1E-QlMCpvDbK-105" value="340" style="rounded=1;whiteSpace=wrap;html=1;fillColor=#f8cecc;strokeColor=#b85450;fontColor=#000000;" parent="1" vertex="1">
          <mxGeometry x="760" y="1770" width="40" height="40" as="geometry" />
        </mxCell>
        <mxCell id="QXL7WL0u1E-QlMCpvDbK-108" style="edgeStyle=orthogonalEdgeStyle;rounded=0;orthogonalLoop=1;jettySize=auto;html=1;exitX=0.5;exitY=1;exitDx=0;exitDy=0;entryX=0.5;entryY=0;entryDx=0;entryDy=0;fontColor=#000000;" parent="1" source="QXL7WL0u1E-QlMCpvDbK-106" target="QXL7WL0u1E-QlMCpvDbK-107" edge="1">
          <mxGeometry relative="1" as="geometry" />
        </mxCell>
        <mxCell id="QXL7WL0u1E-QlMCpvDbK-106" value="475" style="rounded=1;whiteSpace=wrap;html=1;fillColor=#f8cecc;strokeColor=#b85450;fontColor=#000000;" parent="1" vertex="1">
          <mxGeometry x="680" y="1770" width="40" height="40" as="geometry" />
        </mxCell>
        <mxCell id="QXL7WL0u1E-QlMCpvDbK-107" value="340" style="rounded=1;whiteSpace=wrap;html=1;fillColor=#d5e8d4;strokeColor=#82b366;fontColor=#000000;" parent="1" vertex="1">
          <mxGeometry x="760" y="1890" width="40" height="40" as="geometry" />
        </mxCell>
        <mxCell id="QXL7WL0u1E-QlMCpvDbK-109" value="" style="rounded=1;whiteSpace=wrap;html=1;fillColor=#d5e8d4;dashed=1;strokeWidth=2;strokeColor=#82b366;fontColor=#000000;" parent="1" vertex="1">
          <mxGeometry x="30" y="2030" width="780" height="60" as="geometry" />
        </mxCell>
        <mxCell id="QXL7WL0u1E-QlMCpvDbK-110" style="edgeStyle=orthogonalEdgeStyle;rounded=0;orthogonalLoop=1;jettySize=auto;html=1;exitX=0.5;exitY=1;exitDx=0;exitDy=0;entryX=0.5;entryY=0;entryDx=0;entryDy=0;fontColor=#000000;" parent="1" source="QXL7WL0u1E-QlMCpvDbK-111" target="QXL7WL0u1E-QlMCpvDbK-129" edge="1">
          <mxGeometry relative="1" as="geometry" />
        </mxCell>
        <mxCell id="QXL7WL0u1E-QlMCpvDbK-111" value="1026" style="rounded=1;whiteSpace=wrap;html=1;fillColor=#dae8fc;strokeColor=#6c8ebf;fontColor=#000000;" parent="1" vertex="1">
          <mxGeometry x="40" y="2040" width="40" height="40" as="geometry" />
        </mxCell>
        <mxCell id="QXL7WL0u1E-QlMCpvDbK-112" style="edgeStyle=orthogonalEdgeStyle;rounded=0;orthogonalLoop=1;jettySize=auto;html=1;exitX=0.5;exitY=1;exitDx=0;exitDy=0;entryX=0.5;entryY=0;entryDx=0;entryDy=0;fontColor=#000000;" parent="1" source="QXL7WL0u1E-QlMCpvDbK-113" target="QXL7WL0u1E-QlMCpvDbK-129" edge="1">
          <mxGeometry relative="1" as="geometry" />
        </mxCell>
        <mxCell id="QXL7WL0u1E-QlMCpvDbK-113" value="1244" style="rounded=1;whiteSpace=wrap;html=1;fillColor=#dae8fc;strokeColor=#6c8ebf;fontColor=#000000;" parent="1" vertex="1">
          <mxGeometry x="120" y="2040" width="40" height="40" as="geometry" />
        </mxCell>
        <mxCell id="QXL7WL0u1E-QlMCpvDbK-114" style="edgeStyle=orthogonalEdgeStyle;rounded=0;orthogonalLoop=1;jettySize=auto;html=1;exitX=0.5;exitY=1;exitDx=0;exitDy=0;entryX=0.5;entryY=0;entryDx=0;entryDy=0;fontColor=#000000;" parent="1" source="QXL7WL0u1E-QlMCpvDbK-115" target="QXL7WL0u1E-QlMCpvDbK-129" edge="1">
          <mxGeometry relative="1" as="geometry" />
        </mxCell>
        <mxCell id="QXL7WL0u1E-QlMCpvDbK-115" value="307" style="rounded=1;whiteSpace=wrap;html=1;fillColor=#dae8fc;strokeColor=#6c8ebf;fontColor=#000000;" parent="1" vertex="1">
          <mxGeometry x="200" y="2040" width="40" height="40" as="geometry" />
        </mxCell>
        <mxCell id="QXL7WL0u1E-QlMCpvDbK-116" style="edgeStyle=orthogonalEdgeStyle;rounded=0;orthogonalLoop=1;jettySize=auto;html=1;exitX=0.5;exitY=1;exitDx=0;exitDy=0;entryX=0.5;entryY=0;entryDx=0;entryDy=0;fontColor=#000000;" parent="1" source="QXL7WL0u1E-QlMCpvDbK-117" target="QXL7WL0u1E-QlMCpvDbK-129" edge="1">
          <mxGeometry relative="1" as="geometry">
            <mxPoint x="470" y="2221" as="targetPoint" />
          </mxGeometry>
        </mxCell>
        <mxCell id="QXL7WL0u1E-QlMCpvDbK-117" value="284" style="rounded=1;whiteSpace=wrap;html=1;fillColor=#dae8fc;strokeColor=#6c8ebf;fontColor=#000000;" parent="1" vertex="1">
          <mxGeometry x="360" y="2040" width="40" height="40" as="geometry" />
        </mxCell>
        <mxCell id="QXL7WL0u1E-QlMCpvDbK-118" style="edgeStyle=orthogonalEdgeStyle;rounded=0;orthogonalLoop=1;jettySize=auto;html=1;exitX=0.5;exitY=1;exitDx=0;exitDy=0;entryX=0.5;entryY=0;entryDx=0;entryDy=0;fontColor=#000000;" parent="1" source="QXL7WL0u1E-QlMCpvDbK-119" target="QXL7WL0u1E-QlMCpvDbK-129" edge="1">
          <mxGeometry relative="1" as="geometry" />
        </mxCell>
        <mxCell id="QXL7WL0u1E-QlMCpvDbK-119" value="1744" style="rounded=1;whiteSpace=wrap;html=1;fillColor=#dae8fc;strokeColor=#6c8ebf;fontColor=#000000;" parent="1" vertex="1">
          <mxGeometry x="279" y="2040" width="40" height="40" as="geometry" />
        </mxCell>
        <mxCell id="QXL7WL0u1E-QlMCpvDbK-120" style="edgeStyle=orthogonalEdgeStyle;rounded=0;orthogonalLoop=1;jettySize=auto;html=1;exitX=0.5;exitY=1;exitDx=0;exitDy=0;entryX=0.5;entryY=0;entryDx=0;entryDy=0;fontColor=#000000;" parent="1" source="QXL7WL0u1E-QlMCpvDbK-121" target="QXL7WL0u1E-QlMCpvDbK-129" edge="1">
          <mxGeometry relative="1" as="geometry" />
        </mxCell>
        <mxCell id="QXL7WL0u1E-QlMCpvDbK-121" value="466" style="rounded=1;whiteSpace=wrap;html=1;fillColor=#f8cecc;strokeColor=#b85450;fontColor=#000000;" parent="1" vertex="1">
          <mxGeometry x="440" y="2040" width="40" height="40" as="geometry" />
        </mxCell>
        <mxCell id="QXL7WL0u1E-QlMCpvDbK-122" style="edgeStyle=orthogonalEdgeStyle;rounded=0;orthogonalLoop=1;jettySize=auto;html=1;exitX=0.5;exitY=1;exitDx=0;exitDy=0;entryX=0.5;entryY=0;entryDx=0;entryDy=0;fontColor=#000000;" parent="1" source="QXL7WL0u1E-QlMCpvDbK-123" target="QXL7WL0u1E-QlMCpvDbK-129" edge="1">
          <mxGeometry relative="1" as="geometry" />
        </mxCell>
        <mxCell id="QXL7WL0u1E-QlMCpvDbK-123" value="428" style="rounded=1;whiteSpace=wrap;html=1;fillColor=#f8cecc;strokeColor=#b85450;fontColor=#000000;" parent="1" vertex="1">
          <mxGeometry x="520" y="2040" width="40" height="40" as="geometry" />
        </mxCell>
        <mxCell id="QXL7WL0u1E-QlMCpvDbK-124" style="edgeStyle=orthogonalEdgeStyle;rounded=0;orthogonalLoop=1;jettySize=auto;html=1;exitX=0.5;exitY=1;exitDx=0;exitDy=0;entryX=0.5;entryY=0;entryDx=0;entryDy=0;fontColor=#000000;" parent="1" source="QXL7WL0u1E-QlMCpvDbK-125" target="QXL7WL0u1E-QlMCpvDbK-129" edge="1">
          <mxGeometry relative="1" as="geometry" />
        </mxCell>
        <mxCell id="QXL7WL0u1E-QlMCpvDbK-125" value="11" style="rounded=1;whiteSpace=wrap;html=1;fillColor=#f8cecc;strokeColor=#b85450;fontColor=#000000;" parent="1" vertex="1">
          <mxGeometry x="600" y="2040" width="40" height="40" as="geometry" />
        </mxCell>
        <mxCell id="QXL7WL0u1E-QlMCpvDbK-130" style="edgeStyle=orthogonalEdgeStyle;rounded=0;orthogonalLoop=1;jettySize=auto;html=1;exitX=0.5;exitY=1;exitDx=0;exitDy=0;entryX=0.5;entryY=0;entryDx=0;entryDy=0;fontColor=#000000;" parent="1" source="QXL7WL0u1E-QlMCpvDbK-126" target="QXL7WL0u1E-QlMCpvDbK-129" edge="1">
          <mxGeometry relative="1" as="geometry" />
        </mxCell>
        <mxCell id="QXL7WL0u1E-QlMCpvDbK-126" value="340" style="rounded=1;whiteSpace=wrap;html=1;fillColor=#f8cecc;strokeColor=#b85450;fontColor=#000000;" parent="1" vertex="1">
          <mxGeometry x="760" y="2040" width="40" height="40" as="geometry" />
        </mxCell>
        <mxCell id="QXL7WL0u1E-QlMCpvDbK-127" style="edgeStyle=orthogonalEdgeStyle;rounded=0;orthogonalLoop=1;jettySize=auto;html=1;exitX=0.5;exitY=1;exitDx=0;exitDy=0;entryX=0.5;entryY=0;entryDx=0;entryDy=0;fontColor=#000000;" parent="1" source="QXL7WL0u1E-QlMCpvDbK-128" target="QXL7WL0u1E-QlMCpvDbK-129" edge="1">
          <mxGeometry relative="1" as="geometry" />
        </mxCell>
        <mxCell id="QXL7WL0u1E-QlMCpvDbK-128" value="475" style="rounded=1;whiteSpace=wrap;html=1;fillColor=#f8cecc;strokeColor=#b85450;fontColor=#000000;" parent="1" vertex="1">
          <mxGeometry x="680" y="2040" width="40" height="40" as="geometry" />
        </mxCell>
        <mxCell id="QXL7WL0u1E-QlMCpvDbK-129" value="338" style="rounded=1;whiteSpace=wrap;html=1;fillColor=#d5e8d4;strokeColor=#82b366;fontColor=#000000;" parent="1" vertex="1">
          <mxGeometry x="840" y="2160" width="40" height="40" as="geometry" />
        </mxCell>
      </root>
    </mxGraphModel>
  </diagram>
</mxfile>
